<?xml version="1.0" encoding="UTF-8"?>
<svg xmlns="http://www.w3.org/2000/svg" width="1024" height="1024" viewBox="0 0 1024 1024">
  <defs>
    <linearGradient id="bg" x1="0" y1="0" x2="1" y2="1">
      <stop offset="0%" stop-color="#1A2744"/>
      <stop offset="100%" stop-color="#121A2E"/>
    </linearGradient>
    <linearGradient id="shell" x1="0" y1="0" x2="1" y2="0">
      <stop offset="0%" stop-color="#D7E4F4"/>
      <stop offset="45%" stop-color="#F4F8FC"/>
      <stop offset="100%" stop-color="#B7C8DC"/>
    </linearGradient>
    <filter id="soft" x="-20%" y="-20%" width="140%" height="140%">
      <feDropShadow dx="0" dy="10" stdDeviation="18" flood-color="#000" flood-opacity="0.35"/>
    </filter>
  </defs>
  <rect width="1024" height="1024" rx="72" fill="url(#bg)"/>

  <g filter="url(#soft)">
    <path d="
      M 300 158
      C 300 110, 700 110, 700 158
      L 700 860
      C 700 908, 300 908, 300 860
      Z" fill="url(#shell)" stroke="#8EA3BC" stroke-width="5"/>
  </g>
  <path d="
    M 316 160
    C 316 140, 684 140, 684 160
    L 684 858
    C 684 878, 316 878, 316 858
    Z" fill="#152033" opacity="0.22"/>

  <!-- Stage 1 -->
  <rect x="322" y="180.0" width="356" height="101.60000000000002" rx="10"
        fill="#E7B56A"/>
  <path d="M 322 188.0
           C 420.0 174.0, 590.0 198.0, 678 186.0
           L 678 202.0
           C 570.0 190.0, 440.0 182.0, 322 200.0 Z"
        fill="#F3D39A" opacity="0.85"/>
  <!-- sintered distributor -->
  <rect x="322" y="283.6" width="356" height="10" fill="#2C3A52"/>
  <g stroke="#6E7F96" stroke-width="1.4">
    <line x1="340.0" y1="284.6" x2="340.0" y2="292.6"/>
    <line x1="364.6" y1="284.6" x2="364.6" y2="292.6"/>
    <line x1="389.2" y1="284.6" x2="389.2" y2="292.6"/>
    <line x1="413.8" y1="284.6" x2="413.8" y2="292.6"/>
    <line x1="438.5" y1="284.6" x2="438.5" y2="292.6"/>
    <line x1="463.1" y1="284.6" x2="463.1" y2="292.6"/>
    <line x1="487.7" y1="284.6" x2="487.7" y2="292.6"/>
    <line x1="512.3" y1="284.6" x2="512.3" y2="292.6"/>
    <line x1="536.9" y1="284.6" x2="536.9" y2="292.6"/>
    <line x1="561.5" y1="284.6" x2="561.5" y2="292.6"/>
    <line x1="586.2" y1="284.6" x2="586.2" y2="292.6"/>
    <line x1="610.8" y1="284.6" x2="610.8" y2="292.6"/>
    <line x1="635.4" y1="284.6" x2="635.4" y2="292.6"/>
    <line x1="660.0" y1="284.6" x2="660.0" y2="292.6"/>
  </g>
  <rect x="648" y="291.6" width="26" height="28" rx="4" fill="#C5D4E8"/>
  <rect x="326" y="291.6" width="22" height="28" rx="4" fill="#A9B8C9"/>

  <!-- Stage 2 -->
  <rect x="322" y="317.6" width="356" height="101.60000000000002" rx="10"
        fill="#E89A45"/>
  <path d="M 322 325.6
           C 420.0 311.6, 590.0 335.6, 678 323.6
           L 678 339.6
           C 570.0 327.6, 440.0 319.6, 322 337.6 Z"
        fill="#F0B56A" opacity="0.85"/>
  <!-- sintered distributor -->
  <rect x="322" y="421.20000000000005" width="356" height="10" fill="#2C3A52"/>
  <g stroke="#6E7F96" stroke-width="1.4">
    <line x1="340.0" y1="422.20000000000005" x2="340.0" y2="430.20000000000005"/>
    <line x1="364.6" y1="422.20000000000005" x2="364.6" y2="430.20000000000005"/>
    <line x1="389.2" y1="422.20000000000005" x2="389.2" y2="430.20000000000005"/>
    <line x1="413.8" y1="422.20000000000005" x2="413.8" y2="430.20000000000005"/>
    <line x1="438.5" y1="422.20000000000005" x2="438.5" y2="430.20000000000005"/>
    <line x1="463.1" y1="422.20000000000005" x2="463.1" y2="430.20000000000005"/>
    <line x1="487.7" y1="422.20000000000005" x2="487.7" y2="430.20000000000005"/>
    <line x1="512.3" y1="422.20000000000005" x2="512.3" y2="430.20000000000005"/>
    <line x1="536.9" y1="422.20000000000005" x2="536.9" y2="430.20000000000005"/>
    <line x1="561.5" y1="422.20000000000005" x2="561.5" y2="430.20000000000005"/>
    <line x1="586.2" y1="422.20000000000005" x2="586.2" y2="430.20000000000005"/>
    <line x1="610.8" y1="422.20000000000005" x2="610.8" y2="430.20000000000005"/>
    <line x1="635.4" y1="422.20000000000005" x2="635.4" y2="430.20000000000005"/>
    <line x1="660.0" y1="422.20000000000005" x2="660.0" y2="430.20000000000005"/>
  </g>
  <rect x="648" y="429.20000000000005" width="26" height="28" rx="4" fill="#C5D4E8"/>
  <rect x="326" y="429.20000000000005" width="22" height="28" rx="4" fill="#A9B8C9"/>

  <!-- Stage 3 -->
  <rect x="322" y="455.2" width="356" height="101.59999999999997" rx="10"
        fill="#E07A32"/>
  <path d="M 322 463.2
           C 420.0 449.2, 590.0 473.2, 678 461.2
           L 678 477.2
           C 570.0 465.2, 440.0 457.2, 322 475.2 Z"
        fill="#EE9350" opacity="0.85"/>
  <!-- sintered distributor -->
  <rect x="322" y="558.8" width="356" height="10" fill="#2C3A52"/>
  <g stroke="#6E7F96" stroke-width="1.4">
    <line x1="340.0" y1="559.8" x2="340.0" y2="567.8"/>
    <line x1="364.6" y1="559.8" x2="364.6" y2="567.8"/>
    <line x1="389.2" y1="559.8" x2="389.2" y2="567.8"/>
    <line x1="413.8" y1="559.8" x2="413.8" y2="567.8"/>
    <line x1="438.5" y1="559.8" x2="438.5" y2="567.8"/>
    <line x1="463.1" y1="559.8" x2="463.1" y2="567.8"/>
    <line x1="487.7" y1="559.8" x2="487.7" y2="567.8"/>
    <line x1="512.3" y1="559.8" x2="512.3" y2="567.8"/>
    <line x1="536.9" y1="559.8" x2="536.9" y2="567.8"/>
    <line x1="561.5" y1="559.8" x2="561.5" y2="567.8"/>
    <line x1="586.2" y1="559.8" x2="586.2" y2="567.8"/>
    <line x1="610.8" y1="559.8" x2="610.8" y2="567.8"/>
    <line x1="635.4" y1="559.8" x2="635.4" y2="567.8"/>
    <line x1="660.0" y1="559.8" x2="660.0" y2="567.8"/>
  </g>
  <rect x="648" y="566.8" width="26" height="28" rx="4" fill="#C5D4E8"/>
  <rect x="326" y="566.8" width="22" height="28" rx="4" fill="#A9B8C9"/>

  <!-- Stage 4 -->
  <rect x="322" y="592.8" width="356" height="101.60000000000002" rx="10"
        fill="#D45A28"/>
  <path d="M 322 600.8
           C 420.0 586.8, 590.0 610.8, 678 598.8
           L 678 614.8
           C 570.0 602.8, 440.0 594.8, 322 612.8 Z"
        fill="#E4723C" opacity="0.85"/>
  <!-- sintered distributor -->
  <rect x="322" y="696.4" width="356" height="10" fill="#2C3A52"/>
  <g stroke="#6E7F96" stroke-width="1.4">
    <line x1="340.0" y1="697.4" x2="340.0" y2="705.4"/>
    <line x1="364.6" y1="697.4" x2="364.6" y2="705.4"/>
    <line x1="389.2" y1="697.4" x2="389.2" y2="705.4"/>
    <line x1="413.8" y1="697.4" x2="413.8" y2="705.4"/>
    <line x1="438.5" y1="697.4" x2="438.5" y2="705.4"/>
    <line x1="463.1" y1="697.4" x2="463.1" y2="705.4"/>
    <line x1="487.7" y1="697.4" x2="487.7" y2="705.4"/>
    <line x1="512.3" y1="697.4" x2="512.3" y2="705.4"/>
    <line x1="536.9" y1="697.4" x2="536.9" y2="705.4"/>
    <line x1="561.5" y1="697.4" x2="561.5" y2="705.4"/>
    <line x1="586.2" y1="697.4" x2="586.2" y2="705.4"/>
    <line x1="610.8" y1="697.4" x2="610.8" y2="705.4"/>
    <line x1="635.4" y1="697.4" x2="635.4" y2="705.4"/>
    <line x1="660.0" y1="697.4" x2="660.0" y2="705.4"/>
  </g>
  <rect x="648" y="704.4" width="26" height="28" rx="4" fill="#C5D4E8"/>
  <rect x="326" y="704.4" width="22" height="28" rx="4" fill="#A9B8C9"/>

  <!-- Stage 5 -->
  <rect x="322" y="730.4" width="356" height="101.60000000000002" rx="10"
        fill="#C43C22"/>
  <path d="M 322 738.4
           C 420.0 724.4, 590.0 748.4, 678 736.4
           L 678 752.4
           C 570.0 740.4, 440.0 732.4, 322 750.4 Z"
        fill="#D35530" opacity="0.85"/>
  <!-- sintered distributor -->
  <rect x="322" y="834.0" width="356" height="10" fill="#2C3A52"/>
  <g stroke="#6E7F96" stroke-width="1.4">
    <line x1="340.0" y1="835.0" x2="340.0" y2="843.0"/>
    <line x1="364.6" y1="835.0" x2="364.6" y2="843.0"/>
    <line x1="389.2" y1="835.0" x2="389.2" y2="843.0"/>
    <line x1="413.8" y1="835.0" x2="413.8" y2="843.0"/>
    <line x1="438.5" y1="835.0" x2="438.5" y2="843.0"/>
    <line x1="463.1" y1="835.0" x2="463.1" y2="843.0"/>
    <line x1="487.7" y1="835.0" x2="487.7" y2="843.0"/>
    <line x1="512.3" y1="835.0" x2="512.3" y2="843.0"/>
    <line x1="536.9" y1="835.0" x2="536.9" y2="843.0"/>
    <line x1="561.5" y1="835.0" x2="561.5" y2="843.0"/>
    <line x1="586.2" y1="835.0" x2="586.2" y2="843.0"/>
    <line x1="610.8" y1="835.0" x2="610.8" y2="843.0"/>
    <line x1="635.4" y1="835.0" x2="635.4" y2="843.0"/>
    <line x1="660.0" y1="835.0" x2="660.0" y2="843.0"/>
  </g>
  <circle cx="593.0" cy="205.0" r="5.2" fill="#C4A574" opacity="0.9"/>
  <circle cx="374.0" cy="234.0" r="4.2" fill="#C4A574" opacity="0.9"/>
  <circle cx="455.0" cy="262.0" r="3.2" fill="#C4A574" opacity="0.9"/>
  <circle cx="640.0" cy="219.0" r="4.2" fill="#C4A574" opacity="0.9"/>
  <circle cx="421.0" cy="248.0" r="3.2" fill="#C4A574" opacity="0.9"/>
  <circle cx="502.0" cy="199.0" r="5.2" fill="#C4A574" opacity="0.9"/>
  <circle cx="583.0" cy="227.0" r="4.2" fill="#C4A574" opacity="0.9"/>
  <circle cx="364.0" cy="256.0" r="3.2" fill="#C4A574" opacity="0.9"/>
  <circle cx="445.0" cy="207.0" r="5.2" fill="#C4A574" opacity="0.9"/>
  <circle cx="630.0" cy="241.0" r="3.2" fill="#C4A574" opacity="0.9"/>
  <circle cx="411.0" cy="270.0" r="5.2" fill="#C4A574" opacity="0.9"/>
  <circle cx="492.0" cy="221.0" r="4.2" fill="#C4A574" opacity="0.9"/>
  <circle cx="573.0" cy="249.0" r="5.2" fill="#C4A574" opacity="0.9"/>
  <circle cx="354.0" cy="201.0" r="4.2" fill="#C4A574" opacity="0.9"/>
  <circle cx="539.0" cy="235.0" r="5.2" fill="#C4A574" opacity="0.9"/>
  <circle cx="620.0" cy="263.0" r="4.2" fill="#C4A574" opacity="0.9"/>
  <circle cx="401.0" cy="215.0" r="3.2" fill="#C4A574" opacity="0.9"/>
  <circle cx="482.0" cy="243.0" r="5.2" fill="#C4A574" opacity="0.9"/>
  <circle cx="551.0" cy="235.0" r="7.5" fill="#8A9AAB" stroke="#D5DEE8" stroke-width="1.2"/>
  <circle cx="518.0" cy="249.0" r="7.5" fill="#8A9AAB" stroke="#D5DEE8" stroke-width="1.2"/>
  <circle cx="489.0" cy="253.0" r="7.5" fill="#8A9AAB" stroke="#D5DEE8" stroke-width="1.2"/>
  <circle cx="456.0" cy="206.0" r="7.5" fill="#8A9AAB" stroke="#D5DEE8" stroke-width="1.2"/>
  <circle cx="427.0" cy="209.0" r="7.5" fill="#8A9AAB" stroke="#D5DEE8" stroke-width="1.2"/>
  <circle cx="394.0" cy="223.0" r="7.5" fill="#8A9AAB" stroke="#D5DEE8" stroke-width="1.2"/>
  <circle cx="625.0" cy="227.0" r="7.5" fill="#8A9AAB" stroke="#D5DEE8" stroke-width="1.2"/>
  <circle cx="640.0" cy="356.6" r="4.2" fill="#C4A574" opacity="0.9"/>
  <circle cx="502.0" cy="336.6" r="5.2" fill="#C4A574" opacity="0.9"/>
  <circle cx="364.0" cy="393.6" r="3.2" fill="#C4A574" opacity="0.9"/>
  <circle cx="630.0" cy="378.6" r="3.2" fill="#C4A574" opacity="0.9"/>
  <circle cx="492.0" cy="358.6" r="4.2" fill="#C4A574" opacity="0.9"/>
  <circle cx="354.0" cy="338.6" r="4.2" fill="#C4A574" opacity="0.9"/>
  <circle cx="620.0" cy="400.6" r="4.2" fill="#C4A574" opacity="0.9"/>
  <circle cx="482.0" cy="380.6" r="5.2" fill="#C4A574" opacity="0.9"/>
  <circle cx="644.0" cy="360.6" r="3.2" fill="#C4A574" opacity="0.9"/>
  <circle cx="610.0" cy="345.6" r="3.2" fill="#C4A574" opacity="0.9"/>
  <circle cx="472.0" cy="402.6" r="4.2" fill="#C4A574" opacity="0.9"/>
  <circle cx="438.0" cy="388.6" r="4.2" fill="#C4A574" opacity="0.9"/>
  <circle cx="600.0" cy="367.6" r="4.2" fill="#C4A574" opacity="0.9"/>
  <circle cx="462.0" cy="347.6" r="5.2" fill="#C4A574" opacity="0.9"/>
  <circle cx="428.0" cy="410.6" r="5.2" fill="#C4A574" opacity="0.9"/>
  <circle cx="590.0" cy="389.6" r="3.2" fill="#C4A574" opacity="0.9"/>
  <circle cx="452.0" cy="369.6" r="4.2" fill="#C4A574" opacity="0.9"/>
  <circle cx="418.0" cy="355.6" r="4.2" fill="#C4A574" opacity="0.9"/>
  <circle cx="472.0" cy="402.6" r="7.5" fill="#8A9AAB" stroke="#D5DEE8" stroke-width="1.2"/>
  <circle cx="410.0" cy="359.6" r="7.5" fill="#8A9AAB" stroke="#D5DEE8" stroke-width="1.2"/>
  <circle cx="608.0" cy="376.6" r="7.5" fill="#8A9AAB" stroke="#D5DEE8" stroke-width="1.2"/>
  <circle cx="546.0" cy="394.6" r="7.5" fill="#8A9AAB" stroke="#D5DEE8" stroke-width="1.2"/>
  <circle cx="484.0" cy="350.6" r="7.5" fill="#8A9AAB" stroke="#D5DEE8" stroke-width="1.2"/>
  <circle cx="422.0" cy="368.6" r="7.5" fill="#8A9AAB" stroke="#D5DEE8" stroke-width="1.2"/>
  <circle cx="624.0" cy="375.6" r="7.5" fill="#8A9AAB" stroke="#D5DEE8" stroke-width="1.2"/>
  <circle cx="583.0" cy="502.2" r="4.2" fill="#C4A574" opacity="0.9"/>
  <circle cx="630.0" cy="516.2" r="3.2" fill="#C4A574" opacity="0.9"/>
  <circle cx="573.0" cy="524.2" r="5.2" fill="#C4A574" opacity="0.9"/>
  <circle cx="620.0" cy="538.2" r="4.2" fill="#C4A574" opacity="0.9"/>
  <circle cx="563.0" cy="546.2" r="4.2" fill="#C4A574" opacity="0.9"/>
  <circle cx="610.0" cy="483.2" r="3.2" fill="#C4A574" opacity="0.9"/>
  <circle cx="553.0" cy="491.2" r="3.2" fill="#C4A574" opacity="0.9"/>
  <circle cx="600.0" cy="505.2" r="4.2" fill="#C4A574" opacity="0.9"/>
  <circle cx="543.0" cy="513.2" r="4.2" fill="#C4A574" opacity="0.9"/>
  <circle cx="590.0" cy="527.2" r="3.2" fill="#C4A574" opacity="0.9"/>
  <circle cx="637.0" cy="541.2" r="5.2" fill="#C4A574" opacity="0.9"/>
  <circle cx="580.0" cy="549.2" r="5.2" fill="#C4A574" opacity="0.9"/>
  <circle cx="627.0" cy="486.2" r="3.2" fill="#C4A574" opacity="0.9"/>
  <circle cx="570.0" cy="494.2" r="3.2" fill="#C4A574" opacity="0.9"/>
  <circle cx="617.0" cy="508.2" r="5.2" fill="#C4A574" opacity="0.9"/>
  <circle cx="560.0" cy="516.2" r="5.2" fill="#C4A574" opacity="0.9"/>
  <circle cx="607.0" cy="530.2" r="4.2" fill="#C4A574" opacity="0.9"/>
  <circle cx="550.0" cy="538.2" r="3.2" fill="#C4A574" opacity="0.9"/>
  <circle cx="393.0" cy="509.2" r="7.5" fill="#8A9AAB" stroke="#D5DEE8" stroke-width="1.2"/>
  <circle cx="562.0" cy="531.2" r="7.5" fill="#8A9AAB" stroke="#D5DEE8" stroke-width="1.2"/>
  <circle cx="467.0" cy="501.2" r="7.5" fill="#8A9AAB" stroke="#D5DEE8" stroke-width="1.2"/>
  <circle cx="376.0" cy="522.2" r="7.5" fill="#8A9AAB" stroke="#D5DEE8" stroke-width="1.2"/>
  <circle cx="545.0" cy="482.2" r="7.5" fill="#8A9AAB" stroke="#D5DEE8" stroke-width="1.2"/>
  <circle cx="450.0" cy="513.2" r="7.5" fill="#8A9AAB" stroke="#D5DEE8" stroke-width="1.2"/>
  <circle cx="619.0" cy="534.2" r="7.5" fill="#8A9AAB" stroke="#D5DEE8" stroke-width="1.2"/>
  <circle cx="630.0" cy="653.8" r="3.2" fill="#C4A574" opacity="0.9"/>
  <circle cx="354.0" cy="613.8" r="4.2" fill="#C4A574" opacity="0.9"/>
  <circle cx="482.0" cy="655.8" r="5.2" fill="#C4A574" opacity="0.9"/>
  <circle cx="610.0" cy="620.8" r="3.2" fill="#C4A574" opacity="0.9"/>
  <circle cx="438.0" cy="663.8" r="4.2" fill="#C4A574" opacity="0.9"/>
  <circle cx="462.0" cy="622.8" r="5.2" fill="#C4A574" opacity="0.9"/>
  <circle cx="590.0" cy="664.8" r="3.2" fill="#C4A574" opacity="0.9"/>
  <circle cx="418.0" cy="630.8" r="4.2" fill="#C4A574" opacity="0.9"/>
  <circle cx="442.0" cy="666.8" r="5.2" fill="#C4A574" opacity="0.9"/>
  <circle cx="570.0" cy="631.8" r="3.2" fill="#C4A574" opacity="0.9"/>
  <circle cx="398.0" cy="674.8" r="4.2" fill="#C4A574" opacity="0.9"/>
  <circle cx="526.0" cy="639.8" r="5.2" fill="#C4A574" opacity="0.9"/>
  <circle cx="550.0" cy="675.8" r="3.2" fill="#C4A574" opacity="0.9"/>
  <circle cx="378.0" cy="641.8" r="4.2" fill="#C4A574" opacity="0.9"/>
  <circle cx="506.0" cy="683.8" r="5.2" fill="#C4A574" opacity="0.9"/>
  <circle cx="530.0" cy="642.8" r="4.2" fill="#C4A574" opacity="0.9"/>
  <circle cx="358.0" cy="685.8" r="4.2" fill="#C4A574" opacity="0.9"/>
  <circle cx="486.0" cy="650.8" r="5.2" fill="#C4A574" opacity="0.9"/>
  <circle cx="574.0" cy="676.8" r="7.5" fill="#8A9AAB" stroke="#D5DEE8" stroke-width="1.2"/>
  <circle cx="450.0" cy="650.8" r="7.5" fill="#8A9AAB" stroke="#D5DEE8" stroke-width="1.2"/>
  <circle cx="590.0" cy="675.8" r="7.5" fill="#8A9AAB" stroke="#D5DEE8" stroke-width="1.2"/>
  <circle cx="466.0" cy="649.8" r="7.5" fill="#8A9AAB" stroke="#D5DEE8" stroke-width="1.2"/>
  <circle cx="602.0" cy="623.8" r="7.5" fill="#8A9AAB" stroke="#D5DEE8" stroke-width="1.2"/>
  <circle cx="478.0" cy="658.8" r="7.5" fill="#8A9AAB" stroke="#D5DEE8" stroke-width="1.2"/>
  <circle cx="618.0" cy="622.8" r="7.5" fill="#8A9AAB" stroke="#D5DEE8" stroke-width="1.2"/>
  <circle cx="573.0" cy="799.4" r="5.2" fill="#C4A574" opacity="0.9"/>
  <circle cx="482.0" cy="793.4" r="5.2" fill="#C4A574" opacity="0.9"/>
  <circle cx="391.0" cy="787.4" r="5.2" fill="#C4A574" opacity="0.9"/>
  <circle cx="600.0" cy="780.4" r="4.2" fill="#C4A574" opacity="0.9"/>
  <circle cx="509.0" cy="774.4" r="4.2" fill="#C4A574" opacity="0.9"/>
  <circle cx="418.0" cy="768.4" r="4.2" fill="#C4A574" opacity="0.9"/>
  <circle cx="627.0" cy="761.4" r="3.2" fill="#C4A574" opacity="0.9"/>
  <circle cx="432.0" cy="749.4" r="4.2" fill="#C4A574" opacity="0.9"/>
  <circle cx="641.0" cy="820.4" r="4.2" fill="#C4A574" opacity="0.9"/>
  <circle cx="550.0" cy="813.4" r="3.2" fill="#C4A574" opacity="0.9"/>
  <circle cx="459.0" cy="807.4" r="3.2" fill="#C4A574" opacity="0.9"/>
  <circle cx="368.0" cy="801.4" r="3.2" fill="#C4A574" opacity="0.9"/>
  <circle cx="577.0" cy="794.4" r="5.2" fill="#C4A574" opacity="0.9"/>
  <circle cx="486.0" cy="788.4" r="5.2" fill="#C4A574" opacity="0.9"/>
  <circle cx="395.0" cy="782.4" r="5.2" fill="#C4A574" opacity="0.9"/>
  <circle cx="604.0" cy="775.4" r="4.2" fill="#C4A574" opacity="0.9"/>
  <circle cx="513.0" cy="769.4" r="4.2" fill="#C4A574" opacity="0.9"/>
  <circle cx="618.0" cy="757.4" r="5.2" fill="#C4A574" opacity="0.9"/>
  <circle cx="495.0" cy="783.4" r="7.5" fill="#8A9AAB" stroke="#D5DEE8" stroke-width="1.2"/>
  <circle cx="602.0" cy="761.4" r="7.5" fill="#8A9AAB" stroke="#D5DEE8" stroke-width="1.2"/>
  <circle cx="449.0" cy="800.4" r="7.5" fill="#8A9AAB" stroke="#D5DEE8" stroke-width="1.2"/>
  <circle cx="556.0" cy="777.4" r="7.5" fill="#8A9AAB" stroke="#D5DEE8" stroke-width="1.2"/>
  <circle cx="399.0" cy="765.4" r="7.5" fill="#8A9AAB" stroke="#D5DEE8" stroke-width="1.2"/>
  <circle cx="506.0" cy="803.4" r="7.5" fill="#8A9AAB" stroke="#D5DEE8" stroke-width="1.2"/>
  <circle cx="613.0" cy="781.4" r="7.5" fill="#8A9AAB" stroke="#D5DEE8" stroke-width="1.2"/>

  <line x1="770" y1="279.6" x2="770" y2="830.0"
        stroke="#7FB3D8" stroke-width="8" stroke-linecap="round"/>
  <line x1="684" y1="279.6" x2="770" y2="279.6" stroke="#7FB3D8" stroke-width="5" stroke-linecap="round"/>
  <circle cx="770" cy="279.6" r="6" fill="#B9D7EE"/>
  <line x1="684" y1="417.20000000000005" x2="770" y2="417.20000000000005" stroke="#7FB3D8" stroke-width="5" stroke-linecap="round"/>
  <circle cx="770" cy="417.20000000000005" r="6" fill="#B9D7EE"/>
  <line x1="684" y1="554.8" x2="770" y2="554.8" stroke="#7FB3D8" stroke-width="5" stroke-linecap="round"/>
  <circle cx="770" cy="554.8" r="6" fill="#B9D7EE"/>
  <line x1="684" y1="692.4" x2="770" y2="692.4" stroke="#7FB3D8" stroke-width="5" stroke-linecap="round"/>
  <circle cx="770" cy="692.4" r="6" fill="#B9D7EE"/>
  <line x1="684" y1="830.0" x2="770" y2="830.0" stroke="#7FB3D8" stroke-width="5" stroke-linecap="round"/>
  <circle cx="770" cy="830.0" r="6" fill="#B9D7EE"/>

  <rect x="748" y="846.0" width="44" height="30" rx="7" fill="#7FB3D8"/>
  <circle cx="770" cy="861.0" r="8" fill="#1A2744"/>

  <path d="M 252 828 L 252 190" fill="none" stroke="#A8B8C8" stroke-width="6" stroke-linecap="round"/>
  <path d="M 241 212 L 252 186 L 263 212" fill="none" stroke="#A8B8C8" stroke-width="6" stroke-linecap="round" stroke-linejoin="round"/>
  <path d="M 806 190 L 806 828" fill="none" stroke="#D4B48A" stroke-width="6" stroke-linecap="round"/>
  <path d="M 795 804 L 806 830 L 817 804" fill="none" stroke="#D4B48A" stroke-width="6" stroke-linecap="round" stroke-linejoin="round"/>
</svg>
