<?xml version="1.0" encoding="utf-8" standalone="no"?>
<!DOCTYPE svg PUBLIC "-//W3C//DTD SVG 1.1//EN"
  "http://www.w3.org/Graphics/SVG/1.1/DTD/svg11.dtd">
<svg xmlns:xlink="http://www.w3.org/1999/xlink" width="462.963437pt" height="284.329844pt" viewBox="0 0 462.963437 284.329844" xmlns="http://www.w3.org/2000/svg" version="1.1">
 <metadata>
  <rdf:RDF xmlns:dc="http://purl.org/dc/elements/1.1/" xmlns:cc="http://creativecommons.org/ns#" xmlns:rdf="http://www.w3.org/1999/02/22-rdf-syntax-ns#">
   <cc:Work>
    <dc:type rdf:resource="http://purl.org/dc/dcmitype/StillImage"/>
    <dc:date>2026-08-20T00:09:56.382112</dc:date>
    <dc:format>image/svg+xml</dc:format>
    <dc:creator>
     <cc:Agent>
      <dc:title>Matplotlib v3.10.9, https://matplotlib.org/</dc:title>
     </cc:Agent>
    </dc:creator>
   </cc:Work>
  </rdf:RDF>
 </metadata>
 <defs>
  <style type="text/css">*{stroke-linejoin: round; stroke-linecap: butt}</style>
 </defs>
 <g id="figure_1">
  <g id="patch_1">
   <path d="M 0 284.329844 
L 462.963437 284.329844 
L 462.963437 0 
L 0 0 
z
" style="fill: #ffffff"/>
  </g>
  <g id="axes_1">
   <g id="patch_2">
    <path d="M 42.843438 244.837969 
L 455.763438 244.837969 
L 455.763438 23.077969 
L 42.843438 23.077969 
z
" style="fill: #ffffff"/>
   </g>
   <g id="matplotlib.axis_1">
    <g id="xtick_1">
     <g id="line2d_1">
      <path d="M 51.987354 244.837969 
L 51.987354 23.077969 
" clip-path="url(#p084d63659a)" style="fill: none; stroke: #b0b0b0; stroke-opacity: 0.25; stroke-width: 0.8; stroke-linecap: square"/>
     </g>
     <g id="line2d_2">
      <defs>
       <path id="ma2853b506a" d="M 0 0 
L 0 3.5 
" style="stroke: #000000; stroke-width: 0.8"/>
      </defs>
      <g>
       <use xlink:href="#ma2853b506a" x="51.987354" y="244.837969" style="stroke: #000000; stroke-width: 0.8"/>
      </g>
     </g>
     <g id="text_1">
      <!-- 0 -->
      <g transform="translate(48.487979 260.19625) scale(0.11 -0.11)">
       <defs>
        <path id="DejaVuSans-30" d="M 2034 4250 
Q 1547 4250 1301 3770 
Q 1056 3291 1056 2328 
Q 1056 1369 1301 889 
Q 1547 409 2034 409 
Q 2525 409 2770 889 
Q 3016 1369 3016 2328 
Q 3016 3291 2770 3770 
Q 2525 4250 2034 4250 
z
M 2034 4750 
Q 2819 4750 3233 4129 
Q 3647 3509 3647 2328 
Q 3647 1150 3233 529 
Q 2819 -91 2034 -91 
Q 1250 -91 836 529 
Q 422 1150 422 2328 
Q 422 3509 836 4129 
Q 1250 4750 2034 4750 
z
" transform="scale(0.015625)"/>
       </defs>
       <use xlink:href="#DejaVuSans-30"/>
      </g>
     </g>
    </g>
    <g id="xtick_2">
     <g id="line2d_3">
      <path d="M 100.113228 244.837969 
L 100.113228 23.077969 
" clip-path="url(#p084d63659a)" style="fill: none; stroke: #b0b0b0; stroke-opacity: 0.25; stroke-width: 0.8; stroke-linecap: square"/>
     </g>
     <g id="line2d_4">
      <g>
       <use xlink:href="#ma2853b506a" x="100.113228" y="244.837969" style="stroke: #000000; stroke-width: 0.8"/>
      </g>
     </g>
     <g id="text_2">
      <!-- 250 -->
      <g transform="translate(89.615103 260.19625) scale(0.11 -0.11)">
       <defs>
        <path id="DejaVuSans-32" d="M 1228 531 
L 3431 531 
L 3431 0 
L 469 0 
L 469 531 
Q 828 903 1448 1529 
Q 2069 2156 2228 2338 
Q 2531 2678 2651 2914 
Q 2772 3150 2772 3378 
Q 2772 3750 2511 3984 
Q 2250 4219 1831 4219 
Q 1534 4219 1204 4116 
Q 875 4013 500 3803 
L 500 4441 
Q 881 4594 1212 4672 
Q 1544 4750 1819 4750 
Q 2544 4750 2975 4387 
Q 3406 4025 3406 3419 
Q 3406 3131 3298 2873 
Q 3191 2616 2906 2266 
Q 2828 2175 2409 1742 
Q 1991 1309 1228 531 
z
" transform="scale(0.015625)"/>
        <path id="DejaVuSans-35" d="M 691 4666 
L 3169 4666 
L 3169 4134 
L 1269 4134 
L 1269 2991 
Q 1406 3038 1543 3061 
Q 1681 3084 1819 3084 
Q 2600 3084 3056 2656 
Q 3513 2228 3513 1497 
Q 3513 744 3044 326 
Q 2575 -91 1722 -91 
Q 1428 -91 1123 -41 
Q 819 9 494 109 
L 494 744 
Q 775 591 1075 516 
Q 1375 441 1709 441 
Q 2250 441 2565 725 
Q 2881 1009 2881 1497 
Q 2881 1984 2565 2268 
Q 2250 2553 1709 2553 
Q 1456 2553 1204 2497 
Q 953 2441 691 2322 
L 691 4666 
z
" transform="scale(0.015625)"/>
       </defs>
       <use xlink:href="#DejaVuSans-32"/>
       <use xlink:href="#DejaVuSans-35" transform="translate(63.623047 0)"/>
       <use xlink:href="#DejaVuSans-30" transform="translate(127.246094 0)"/>
      </g>
     </g>
    </g>
    <g id="xtick_3">
     <g id="line2d_5">
      <path d="M 148.239102 244.837969 
L 148.239102 23.077969 
" clip-path="url(#p084d63659a)" style="fill: none; stroke: #b0b0b0; stroke-opacity: 0.25; stroke-width: 0.8; stroke-linecap: square"/>
     </g>
     <g id="line2d_6">
      <g>
       <use xlink:href="#ma2853b506a" x="148.239102" y="244.837969" style="stroke: #000000; stroke-width: 0.8"/>
      </g>
     </g>
     <g id="text_3">
      <!-- 500 -->
      <g transform="translate(137.740977 260.19625) scale(0.11 -0.11)">
       <use xlink:href="#DejaVuSans-35"/>
       <use xlink:href="#DejaVuSans-30" transform="translate(63.623047 0)"/>
       <use xlink:href="#DejaVuSans-30" transform="translate(127.246094 0)"/>
      </g>
     </g>
    </g>
    <g id="xtick_4">
     <g id="line2d_7">
      <path d="M 196.364976 244.837969 
L 196.364976 23.077969 
" clip-path="url(#p084d63659a)" style="fill: none; stroke: #b0b0b0; stroke-opacity: 0.25; stroke-width: 0.8; stroke-linecap: square"/>
     </g>
     <g id="line2d_8">
      <g>
       <use xlink:href="#ma2853b506a" x="196.364976" y="244.837969" style="stroke: #000000; stroke-width: 0.8"/>
      </g>
     </g>
     <g id="text_4">
      <!-- 750 -->
      <g transform="translate(185.866851 260.19625) scale(0.11 -0.11)">
       <defs>
        <path id="DejaVuSans-37" d="M 525 4666 
L 3525 4666 
L 3525 4397 
L 1831 0 
L 1172 0 
L 2766 4134 
L 525 4134 
L 525 4666 
z
" transform="scale(0.015625)"/>
       </defs>
       <use xlink:href="#DejaVuSans-37"/>
       <use xlink:href="#DejaVuSans-35" transform="translate(63.623047 0)"/>
       <use xlink:href="#DejaVuSans-30" transform="translate(127.246094 0)"/>
      </g>
     </g>
    </g>
    <g id="xtick_5">
     <g id="line2d_9">
      <path d="M 244.49085 244.837969 
L 244.49085 23.077969 
" clip-path="url(#p084d63659a)" style="fill: none; stroke: #b0b0b0; stroke-opacity: 0.25; stroke-width: 0.8; stroke-linecap: square"/>
     </g>
     <g id="line2d_10">
      <g>
       <use xlink:href="#ma2853b506a" x="244.49085" y="244.837969" style="stroke: #000000; stroke-width: 0.8"/>
      </g>
     </g>
     <g id="text_5">
      <!-- 1000 -->
      <g transform="translate(230.49335 260.19625) scale(0.11 -0.11)">
       <defs>
        <path id="DejaVuSans-31" d="M 794 531 
L 1825 531 
L 1825 4091 
L 703 3866 
L 703 4441 
L 1819 4666 
L 2450 4666 
L 2450 531 
L 3481 531 
L 3481 0 
L 794 0 
L 794 531 
z
" transform="scale(0.015625)"/>
       </defs>
       <use xlink:href="#DejaVuSans-31"/>
       <use xlink:href="#DejaVuSans-30" transform="translate(63.623047 0)"/>
       <use xlink:href="#DejaVuSans-30" transform="translate(127.246094 0)"/>
       <use xlink:href="#DejaVuSans-30" transform="translate(190.869141 0)"/>
      </g>
     </g>
    </g>
    <g id="xtick_6">
     <g id="line2d_11">
      <path d="M 292.616724 244.837969 
L 292.616724 23.077969 
" clip-path="url(#p084d63659a)" style="fill: none; stroke: #b0b0b0; stroke-opacity: 0.25; stroke-width: 0.8; stroke-linecap: square"/>
     </g>
     <g id="line2d_12">
      <g>
       <use xlink:href="#ma2853b506a" x="292.616724" y="244.837969" style="stroke: #000000; stroke-width: 0.8"/>
      </g>
     </g>
     <g id="text_6">
      <!-- 1250 -->
      <g transform="translate(278.619224 260.19625) scale(0.11 -0.11)">
       <use xlink:href="#DejaVuSans-31"/>
       <use xlink:href="#DejaVuSans-32" transform="translate(63.623047 0)"/>
       <use xlink:href="#DejaVuSans-35" transform="translate(127.246094 0)"/>
       <use xlink:href="#DejaVuSans-30" transform="translate(190.869141 0)"/>
      </g>
     </g>
    </g>
    <g id="xtick_7">
     <g id="line2d_13">
      <path d="M 340.742598 244.837969 
L 340.742598 23.077969 
" clip-path="url(#p084d63659a)" style="fill: none; stroke: #b0b0b0; stroke-opacity: 0.25; stroke-width: 0.8; stroke-linecap: square"/>
     </g>
     <g id="line2d_14">
      <g>
       <use xlink:href="#ma2853b506a" x="340.742598" y="244.837969" style="stroke: #000000; stroke-width: 0.8"/>
      </g>
     </g>
     <g id="text_7">
      <!-- 1500 -->
      <g transform="translate(326.745098 260.19625) scale(0.11 -0.11)">
       <use xlink:href="#DejaVuSans-31"/>
       <use xlink:href="#DejaVuSans-35" transform="translate(63.623047 0)"/>
       <use xlink:href="#DejaVuSans-30" transform="translate(127.246094 0)"/>
       <use xlink:href="#DejaVuSans-30" transform="translate(190.869141 0)"/>
      </g>
     </g>
    </g>
    <g id="xtick_8">
     <g id="line2d_15">
      <path d="M 388.868472 244.837969 
L 388.868472 23.077969 
" clip-path="url(#p084d63659a)" style="fill: none; stroke: #b0b0b0; stroke-opacity: 0.25; stroke-width: 0.8; stroke-linecap: square"/>
     </g>
     <g id="line2d_16">
      <g>
       <use xlink:href="#ma2853b506a" x="388.868472" y="244.837969" style="stroke: #000000; stroke-width: 0.8"/>
      </g>
     </g>
     <g id="text_8">
      <!-- 1750 -->
      <g transform="translate(374.870972 260.19625) scale(0.11 -0.11)">
       <use xlink:href="#DejaVuSans-31"/>
       <use xlink:href="#DejaVuSans-37" transform="translate(63.623047 0)"/>
       <use xlink:href="#DejaVuSans-35" transform="translate(127.246094 0)"/>
       <use xlink:href="#DejaVuSans-30" transform="translate(190.869141 0)"/>
      </g>
     </g>
    </g>
    <g id="xtick_9">
     <g id="line2d_17">
      <path d="M 436.994347 244.837969 
L 436.994347 23.077969 
" clip-path="url(#p084d63659a)" style="fill: none; stroke: #b0b0b0; stroke-opacity: 0.25; stroke-width: 0.8; stroke-linecap: square"/>
     </g>
     <g id="line2d_18">
      <g>
       <use xlink:href="#ma2853b506a" x="436.994347" y="244.837969" style="stroke: #000000; stroke-width: 0.8"/>
      </g>
     </g>
     <g id="text_9">
      <!-- 2000 -->
      <g transform="translate(422.996847 260.19625) scale(0.11 -0.11)">
       <use xlink:href="#DejaVuSans-32"/>
       <use xlink:href="#DejaVuSans-30" transform="translate(63.623047 0)"/>
       <use xlink:href="#DejaVuSans-30" transform="translate(127.246094 0)"/>
       <use xlink:href="#DejaVuSans-30" transform="translate(190.869141 0)"/>
      </g>
     </g>
    </g>
    <g id="text_10">
     <!-- Checkpoint step -->
     <g transform="translate(204.712188 274.842187) scale(0.11 -0.11)">
      <defs>
       <path id="DejaVuSans-43" d="M 4122 4306 
L 4122 3641 
Q 3803 3938 3442 4084 
Q 3081 4231 2675 4231 
Q 1875 4231 1450 3742 
Q 1025 3253 1025 2328 
Q 1025 1406 1450 917 
Q 1875 428 2675 428 
Q 3081 428 3442 575 
Q 3803 722 4122 1019 
L 4122 359 
Q 3791 134 3420 21 
Q 3050 -91 2638 -91 
Q 1578 -91 968 557 
Q 359 1206 359 2328 
Q 359 3453 968 4101 
Q 1578 4750 2638 4750 
Q 3056 4750 3426 4639 
Q 3797 4528 4122 4306 
z
" transform="scale(0.015625)"/>
       <path id="DejaVuSans-68" d="M 3513 2113 
L 3513 0 
L 2938 0 
L 2938 2094 
Q 2938 2591 2744 2837 
Q 2550 3084 2163 3084 
Q 1697 3084 1428 2787 
Q 1159 2491 1159 1978 
L 1159 0 
L 581 0 
L 581 4863 
L 1159 4863 
L 1159 2956 
Q 1366 3272 1645 3428 
Q 1925 3584 2291 3584 
Q 2894 3584 3203 3211 
Q 3513 2838 3513 2113 
z
" transform="scale(0.015625)"/>
       <path id="DejaVuSans-65" d="M 3597 1894 
L 3597 1613 
L 953 1613 
Q 991 1019 1311 708 
Q 1631 397 2203 397 
Q 2534 397 2845 478 
Q 3156 559 3463 722 
L 3463 178 
Q 3153 47 2828 -22 
Q 2503 -91 2169 -91 
Q 1331 -91 842 396 
Q 353 884 353 1716 
Q 353 2575 817 3079 
Q 1281 3584 2069 3584 
Q 2775 3584 3186 3129 
Q 3597 2675 3597 1894 
z
M 3022 2063 
Q 3016 2534 2758 2815 
Q 2500 3097 2075 3097 
Q 1594 3097 1305 2825 
Q 1016 2553 972 2059 
L 3022 2063 
z
" transform="scale(0.015625)"/>
       <path id="DejaVuSans-63" d="M 3122 3366 
L 3122 2828 
Q 2878 2963 2633 3030 
Q 2388 3097 2138 3097 
Q 1578 3097 1268 2742 
Q 959 2388 959 1747 
Q 959 1106 1268 751 
Q 1578 397 2138 397 
Q 2388 397 2633 464 
Q 2878 531 3122 666 
L 3122 134 
Q 2881 22 2623 -34 
Q 2366 -91 2075 -91 
Q 1284 -91 818 406 
Q 353 903 353 1747 
Q 353 2603 823 3093 
Q 1294 3584 2113 3584 
Q 2378 3584 2631 3529 
Q 2884 3475 3122 3366 
z
" transform="scale(0.015625)"/>
       <path id="DejaVuSans-6b" d="M 581 4863 
L 1159 4863 
L 1159 1991 
L 2875 3500 
L 3609 3500 
L 1753 1863 
L 3688 0 
L 2938 0 
L 1159 1709 
L 1159 0 
L 581 0 
L 581 4863 
z
" transform="scale(0.015625)"/>
       <path id="DejaVuSans-70" d="M 1159 525 
L 1159 -1331 
L 581 -1331 
L 581 3500 
L 1159 3500 
L 1159 2969 
Q 1341 3281 1617 3432 
Q 1894 3584 2278 3584 
Q 2916 3584 3314 3078 
Q 3713 2572 3713 1747 
Q 3713 922 3314 415 
Q 2916 -91 2278 -91 
Q 1894 -91 1617 61 
Q 1341 213 1159 525 
z
M 3116 1747 
Q 3116 2381 2855 2742 
Q 2594 3103 2138 3103 
Q 1681 3103 1420 2742 
Q 1159 2381 1159 1747 
Q 1159 1113 1420 752 
Q 1681 391 2138 391 
Q 2594 391 2855 752 
Q 3116 1113 3116 1747 
z
" transform="scale(0.015625)"/>
       <path id="DejaVuSans-6f" d="M 1959 3097 
Q 1497 3097 1228 2736 
Q 959 2375 959 1747 
Q 959 1119 1226 758 
Q 1494 397 1959 397 
Q 2419 397 2687 759 
Q 2956 1122 2956 1747 
Q 2956 2369 2687 2733 
Q 2419 3097 1959 3097 
z
M 1959 3584 
Q 2709 3584 3137 3096 
Q 3566 2609 3566 1747 
Q 3566 888 3137 398 
Q 2709 -91 1959 -91 
Q 1206 -91 779 398 
Q 353 888 353 1747 
Q 353 2609 779 3096 
Q 1206 3584 1959 3584 
z
" transform="scale(0.015625)"/>
       <path id="DejaVuSans-69" d="M 603 3500 
L 1178 3500 
L 1178 0 
L 603 0 
L 603 3500 
z
M 603 4863 
L 1178 4863 
L 1178 4134 
L 603 4134 
L 603 4863 
z
" transform="scale(0.015625)"/>
       <path id="DejaVuSans-6e" d="M 3513 2113 
L 3513 0 
L 2938 0 
L 2938 2094 
Q 2938 2591 2744 2837 
Q 2550 3084 2163 3084 
Q 1697 3084 1428 2787 
Q 1159 2491 1159 1978 
L 1159 0 
L 581 0 
L 581 3500 
L 1159 3500 
L 1159 2956 
Q 1366 3272 1645 3428 
Q 1925 3584 2291 3584 
Q 2894 3584 3203 3211 
Q 3513 2838 3513 2113 
z
" transform="scale(0.015625)"/>
       <path id="DejaVuSans-74" d="M 1172 4494 
L 1172 3500 
L 2356 3500 
L 2356 3053 
L 1172 3053 
L 1172 1153 
Q 1172 725 1289 603 
Q 1406 481 1766 481 
L 2356 481 
L 2356 0 
L 1766 0 
Q 1100 0 847 248 
Q 594 497 594 1153 
L 594 3053 
L 172 3053 
L 172 3500 
L 594 3500 
L 594 4494 
L 1172 4494 
z
" transform="scale(0.015625)"/>
       <path id="DejaVuSans-20" transform="scale(0.015625)"/>
       <path id="DejaVuSans-73" d="M 2834 3397 
L 2834 2853 
Q 2591 2978 2328 3040 
Q 2066 3103 1784 3103 
Q 1356 3103 1142 2972 
Q 928 2841 928 2578 
Q 928 2378 1081 2264 
Q 1234 2150 1697 2047 
L 1894 2003 
Q 2506 1872 2764 1633 
Q 3022 1394 3022 966 
Q 3022 478 2636 193 
Q 2250 -91 1575 -91 
Q 1294 -91 989 -36 
Q 684 19 347 128 
L 347 722 
Q 666 556 975 473 
Q 1284 391 1588 391 
Q 1994 391 2212 530 
Q 2431 669 2431 922 
Q 2431 1156 2273 1281 
Q 2116 1406 1581 1522 
L 1381 1569 
Q 847 1681 609 1914 
Q 372 2147 372 2553 
Q 372 3047 722 3315 
Q 1072 3584 1716 3584 
Q 2034 3584 2315 3537 
Q 2597 3491 2834 3397 
z
" transform="scale(0.015625)"/>
      </defs>
      <use xlink:href="#DejaVuSans-43"/>
      <use xlink:href="#DejaVuSans-68" transform="translate(69.824219 0)"/>
      <use xlink:href="#DejaVuSans-65" transform="translate(133.203125 0)"/>
      <use xlink:href="#DejaVuSans-63" transform="translate(194.726562 0)"/>
      <use xlink:href="#DejaVuSans-6b" transform="translate(249.707031 0)"/>
      <use xlink:href="#DejaVuSans-70" transform="translate(307.617188 0)"/>
      <use xlink:href="#DejaVuSans-6f" transform="translate(371.09375 0)"/>
      <use xlink:href="#DejaVuSans-69" transform="translate(432.275391 0)"/>
      <use xlink:href="#DejaVuSans-6e" transform="translate(460.058594 0)"/>
      <use xlink:href="#DejaVuSans-74" transform="translate(523.4375 0)"/>
      <use xlink:href="#DejaVuSans-20" transform="translate(562.646484 0)"/>
      <use xlink:href="#DejaVuSans-73" transform="translate(594.433594 0)"/>
      <use xlink:href="#DejaVuSans-74" transform="translate(646.533203 0)"/>
      <use xlink:href="#DejaVuSans-65" transform="translate(685.742188 0)"/>
      <use xlink:href="#DejaVuSans-70" transform="translate(747.265625 0)"/>
     </g>
    </g>
   </g>
   <g id="matplotlib.axis_2">
    <g id="ytick_1">
     <g id="line2d_19">
      <path d="M 42.843438 214.443323 
L 455.763438 214.443323 
" clip-path="url(#p084d63659a)" style="fill: none; stroke: #b0b0b0; stroke-opacity: 0.25; stroke-width: 0.8; stroke-linecap: square"/>
     </g>
     <g id="line2d_20">
      <defs>
       <path id="m52441cb635" d="M 0 0 
L -3.5 0 
" style="stroke: #000000; stroke-width: 0.8"/>
      </defs>
      <g>
       <use xlink:href="#m52441cb635" x="42.843438" y="214.443323" style="stroke: #000000; stroke-width: 0.8"/>
      </g>
     </g>
     <g id="text_11">
      <!-- 5 -->
      <g transform="translate(28.844688 218.622464) scale(0.11 -0.11)">
       <use xlink:href="#DejaVuSans-35"/>
      </g>
     </g>
    </g>
    <g id="ytick_2">
     <g id="line2d_21">
      <path d="M 42.843438 174.274869 
L 455.763438 174.274869 
" clip-path="url(#p084d63659a)" style="fill: none; stroke: #b0b0b0; stroke-opacity: 0.25; stroke-width: 0.8; stroke-linecap: square"/>
     </g>
     <g id="line2d_22">
      <g>
       <use xlink:href="#m52441cb635" x="42.843438" y="174.274869" style="stroke: #000000; stroke-width: 0.8"/>
      </g>
     </g>
     <g id="text_12">
      <!-- 10 -->
      <g transform="translate(21.845938 178.45401) scale(0.11 -0.11)">
       <use xlink:href="#DejaVuSans-31"/>
       <use xlink:href="#DejaVuSans-30" transform="translate(63.623047 0)"/>
      </g>
     </g>
    </g>
    <g id="ytick_3">
     <g id="line2d_23">
      <path d="M 42.843438 134.106416 
L 455.763438 134.106416 
" clip-path="url(#p084d63659a)" style="fill: none; stroke: #b0b0b0; stroke-opacity: 0.25; stroke-width: 0.8; stroke-linecap: square"/>
     </g>
     <g id="line2d_24">
      <g>
       <use xlink:href="#m52441cb635" x="42.843438" y="134.106416" style="stroke: #000000; stroke-width: 0.8"/>
      </g>
     </g>
     <g id="text_13">
      <!-- 15 -->
      <g transform="translate(21.845938 138.285556) scale(0.11 -0.11)">
       <use xlink:href="#DejaVuSans-31"/>
       <use xlink:href="#DejaVuSans-35" transform="translate(63.623047 0)"/>
      </g>
     </g>
    </g>
    <g id="ytick_4">
     <g id="line2d_25">
      <path d="M 42.843438 93.937962 
L 455.763438 93.937962 
" clip-path="url(#p084d63659a)" style="fill: none; stroke: #b0b0b0; stroke-opacity: 0.25; stroke-width: 0.8; stroke-linecap: square"/>
     </g>
     <g id="line2d_26">
      <g>
       <use xlink:href="#m52441cb635" x="42.843438" y="93.937962" style="stroke: #000000; stroke-width: 0.8"/>
      </g>
     </g>
     <g id="text_14">
      <!-- 20 -->
      <g transform="translate(21.845938 98.117102) scale(0.11 -0.11)">
       <use xlink:href="#DejaVuSans-32"/>
       <use xlink:href="#DejaVuSans-30" transform="translate(63.623047 0)"/>
      </g>
     </g>
    </g>
    <g id="ytick_5">
     <g id="line2d_27">
      <path d="M 42.843438 53.769508 
L 455.763438 53.769508 
" clip-path="url(#p084d63659a)" style="fill: none; stroke: #b0b0b0; stroke-opacity: 0.25; stroke-width: 0.8; stroke-linecap: square"/>
     </g>
     <g id="line2d_28">
      <g>
       <use xlink:href="#m52441cb635" x="42.843438" y="53.769508" style="stroke: #000000; stroke-width: 0.8"/>
      </g>
     </g>
     <g id="text_15">
      <!-- 25 -->
      <g transform="translate(21.845938 57.948648) scale(0.11 -0.11)">
       <use xlink:href="#DejaVuSans-32"/>
       <use xlink:href="#DejaVuSans-35" transform="translate(63.623047 0)"/>
      </g>
     </g>
    </g>
    <g id="text_16">
     <!-- Mean height (mm) -->
     <g transform="translate(15.558281 184.977344) rotate(-90) scale(0.11 -0.11)">
      <defs>
       <path id="DejaVuSans-4d" d="M 628 4666 
L 1569 4666 
L 2759 1491 
L 3956 4666 
L 4897 4666 
L 4897 0 
L 4281 0 
L 4281 4097 
L 3078 897 
L 2444 897 
L 1241 4097 
L 1241 0 
L 628 0 
L 628 4666 
z
" transform="scale(0.015625)"/>
       <path id="DejaVuSans-61" d="M 2194 1759 
Q 1497 1759 1228 1600 
Q 959 1441 959 1056 
Q 959 750 1161 570 
Q 1363 391 1709 391 
Q 2188 391 2477 730 
Q 2766 1069 2766 1631 
L 2766 1759 
L 2194 1759 
z
M 3341 1997 
L 3341 0 
L 2766 0 
L 2766 531 
Q 2569 213 2275 61 
Q 1981 -91 1556 -91 
Q 1019 -91 701 211 
Q 384 513 384 1019 
Q 384 1609 779 1909 
Q 1175 2209 1959 2209 
L 2766 2209 
L 2766 2266 
Q 2766 2663 2505 2880 
Q 2244 3097 1772 3097 
Q 1472 3097 1187 3025 
Q 903 2953 641 2809 
L 641 3341 
Q 956 3463 1253 3523 
Q 1550 3584 1831 3584 
Q 2591 3584 2966 3190 
Q 3341 2797 3341 1997 
z
" transform="scale(0.015625)"/>
       <path id="DejaVuSans-67" d="M 2906 1791 
Q 2906 2416 2648 2759 
Q 2391 3103 1925 3103 
Q 1463 3103 1205 2759 
Q 947 2416 947 1791 
Q 947 1169 1205 825 
Q 1463 481 1925 481 
Q 2391 481 2648 825 
Q 2906 1169 2906 1791 
z
M 3481 434 
Q 3481 -459 3084 -895 
Q 2688 -1331 1869 -1331 
Q 1566 -1331 1297 -1286 
Q 1028 -1241 775 -1147 
L 775 -588 
Q 1028 -725 1275 -790 
Q 1522 -856 1778 -856 
Q 2344 -856 2625 -561 
Q 2906 -266 2906 331 
L 2906 616 
Q 2728 306 2450 153 
Q 2172 0 1784 0 
Q 1141 0 747 490 
Q 353 981 353 1791 
Q 353 2603 747 3093 
Q 1141 3584 1784 3584 
Q 2172 3584 2450 3431 
Q 2728 3278 2906 2969 
L 2906 3500 
L 3481 3500 
L 3481 434 
z
" transform="scale(0.015625)"/>
       <path id="DejaVuSans-28" d="M 1984 4856 
Q 1566 4138 1362 3434 
Q 1159 2731 1159 2009 
Q 1159 1288 1364 580 
Q 1569 -128 1984 -844 
L 1484 -844 
Q 1016 -109 783 600 
Q 550 1309 550 2009 
Q 550 2706 781 3412 
Q 1013 4119 1484 4856 
L 1984 4856 
z
" transform="scale(0.015625)"/>
       <path id="DejaVuSans-6d" d="M 3328 2828 
Q 3544 3216 3844 3400 
Q 4144 3584 4550 3584 
Q 5097 3584 5394 3201 
Q 5691 2819 5691 2113 
L 5691 0 
L 5113 0 
L 5113 2094 
Q 5113 2597 4934 2840 
Q 4756 3084 4391 3084 
Q 3944 3084 3684 2787 
Q 3425 2491 3425 1978 
L 3425 0 
L 2847 0 
L 2847 2094 
Q 2847 2600 2669 2842 
Q 2491 3084 2119 3084 
Q 1678 3084 1418 2786 
Q 1159 2488 1159 1978 
L 1159 0 
L 581 0 
L 581 3500 
L 1159 3500 
L 1159 2956 
Q 1356 3278 1631 3431 
Q 1906 3584 2284 3584 
Q 2666 3584 2933 3390 
Q 3200 3197 3328 2828 
z
" transform="scale(0.015625)"/>
       <path id="DejaVuSans-29" d="M 513 4856 
L 1013 4856 
Q 1481 4119 1714 3412 
Q 1947 2706 1947 2009 
Q 1947 1309 1714 600 
Q 1481 -109 1013 -844 
L 513 -844 
Q 928 -128 1133 580 
Q 1338 1288 1338 2009 
Q 1338 2731 1133 3434 
Q 928 4138 513 4856 
z
" transform="scale(0.015625)"/>
      </defs>
      <use xlink:href="#DejaVuSans-4d"/>
      <use xlink:href="#DejaVuSans-65" transform="translate(86.279297 0)"/>
      <use xlink:href="#DejaVuSans-61" transform="translate(147.802734 0)"/>
      <use xlink:href="#DejaVuSans-6e" transform="translate(209.082031 0)"/>
      <use xlink:href="#DejaVuSans-20" transform="translate(272.460938 0)"/>
      <use xlink:href="#DejaVuSans-68" transform="translate(304.248047 0)"/>
      <use xlink:href="#DejaVuSans-65" transform="translate(367.626953 0)"/>
      <use xlink:href="#DejaVuSans-69" transform="translate(429.150391 0)"/>
      <use xlink:href="#DejaVuSans-67" transform="translate(456.933594 0)"/>
      <use xlink:href="#DejaVuSans-68" transform="translate(520.410156 0)"/>
      <use xlink:href="#DejaVuSans-74" transform="translate(583.789062 0)"/>
      <use xlink:href="#DejaVuSans-20" transform="translate(622.998047 0)"/>
      <use xlink:href="#DejaVuSans-28" transform="translate(654.785156 0)"/>
      <use xlink:href="#DejaVuSans-6d" transform="translate(693.798828 0)"/>
      <use xlink:href="#DejaVuSans-6d" transform="translate(791.210938 0)"/>
      <use xlink:href="#DejaVuSans-29" transform="translate(888.623047 0)"/>
     </g>
    </g>
   </g>
   <g id="line2d_29">
    <path d="M 61.612528 231.163082 
L 71.237703 216.472573 
L 90.488053 196.964725 
L 109.738403 175.908541 
L 128.988752 154.279884 
L 148.239102 132.684592 
L 186.739801 89.008205 
L 205.990151 70.241939 
L 225.2405 56.018809 
L 244.49085 45.820829 
L 263.7412 38.994993 
L 282.991549 34.851579 
L 302.241899 33.157969 
L 340.742598 35.344583 
L 379.243298 41.475565 
L 417.743997 47.65794 
L 436.994347 49.888762 
" clip-path="url(#p084d63659a)" style="fill: none; stroke: #8d6e63; stroke-width: 2; stroke-linecap: square"/>
    <defs>
     <path id="me563f7034f" d="M 0 3 
C 0.795609 3 1.55874 2.683901 2.12132 2.12132 
C 2.683901 1.55874 3 0.795609 3 0 
C 3 -0.795609 2.683901 -1.55874 2.12132 -2.12132 
C 1.55874 -2.683901 0.795609 -3 0 -3 
C -0.795609 -3 -1.55874 -2.683901 -2.12132 -2.12132 
C -2.683901 -1.55874 -3 -0.795609 -3 0 
C -3 0.795609 -2.683901 1.55874 -2.12132 2.12132 
C -1.55874 2.683901 -0.795609 3 0 3 
z
" style="stroke: #8d6e63"/>
    </defs>
    <g clip-path="url(#p084d63659a)">
     <use xlink:href="#me563f7034f" x="61.612528" y="231.163082" style="fill: #8d6e63; stroke: #8d6e63"/>
     <use xlink:href="#me563f7034f" x="71.237703" y="216.472573" style="fill: #8d6e63; stroke: #8d6e63"/>
     <use xlink:href="#me563f7034f" x="90.488053" y="196.964725" style="fill: #8d6e63; stroke: #8d6e63"/>
     <use xlink:href="#me563f7034f" x="109.738403" y="175.908541" style="fill: #8d6e63; stroke: #8d6e63"/>
     <use xlink:href="#me563f7034f" x="128.988752" y="154.279884" style="fill: #8d6e63; stroke: #8d6e63"/>
     <use xlink:href="#me563f7034f" x="148.239102" y="132.684592" style="fill: #8d6e63; stroke: #8d6e63"/>
     <use xlink:href="#me563f7034f" x="186.739801" y="89.008205" style="fill: #8d6e63; stroke: #8d6e63"/>
     <use xlink:href="#me563f7034f" x="205.990151" y="70.241939" style="fill: #8d6e63; stroke: #8d6e63"/>
     <use xlink:href="#me563f7034f" x="225.2405" y="56.018809" style="fill: #8d6e63; stroke: #8d6e63"/>
     <use xlink:href="#me563f7034f" x="244.49085" y="45.820829" style="fill: #8d6e63; stroke: #8d6e63"/>
     <use xlink:href="#me563f7034f" x="263.7412" y="38.994993" style="fill: #8d6e63; stroke: #8d6e63"/>
     <use xlink:href="#me563f7034f" x="282.991549" y="34.851579" style="fill: #8d6e63; stroke: #8d6e63"/>
     <use xlink:href="#me563f7034f" x="302.241899" y="33.157969" style="fill: #8d6e63; stroke: #8d6e63"/>
     <use xlink:href="#me563f7034f" x="340.742598" y="35.344583" style="fill: #8d6e63; stroke: #8d6e63"/>
     <use xlink:href="#me563f7034f" x="379.243298" y="41.475565" style="fill: #8d6e63; stroke: #8d6e63"/>
     <use xlink:href="#me563f7034f" x="417.743997" y="47.65794" style="fill: #8d6e63; stroke: #8d6e63"/>
     <use xlink:href="#me563f7034f" x="436.994347" y="49.888762" style="fill: #8d6e63; stroke: #8d6e63"/>
    </g>
   </g>
   <g id="line2d_30">
    <path d="M 61.612528 234.757969 
L 71.237703 211.455644 
L 90.488053 188.406991 
L 109.738403 164.389003 
L 128.988752 140.180966 
L 148.239102 116.080225 
L 186.739801 69.175551 
L 205.990151 54.015366 
L 225.2405 44.671218 
L 244.49085 38.808159 
L 263.7412 35.790867 
L 282.991549 34.814053 
L 302.241899 35.655396 
L 340.742598 41.411086 
L 379.243298 49.47792 
L 417.743997 58.46518 
L 436.994347 62.454827 
" clip-path="url(#p084d63659a)" style="fill: none; stroke: #546e7a; stroke-width: 2; stroke-linecap: square"/>
    <defs>
     <path id="mbcd92fa984" d="M -3 3 
L 3 3 
L 3 -3 
L -3 -3 
z
" style="stroke: #546e7a; stroke-linejoin: miter"/>
    </defs>
    <g clip-path="url(#p084d63659a)">
     <use xlink:href="#mbcd92fa984" x="61.612528" y="234.757969" style="fill: #546e7a; stroke: #546e7a; stroke-linejoin: miter"/>
     <use xlink:href="#mbcd92fa984" x="71.237703" y="211.455644" style="fill: #546e7a; stroke: #546e7a; stroke-linejoin: miter"/>
     <use xlink:href="#mbcd92fa984" x="90.488053" y="188.406991" style="fill: #546e7a; stroke: #546e7a; stroke-linejoin: miter"/>
     <use xlink:href="#mbcd92fa984" x="109.738403" y="164.389003" style="fill: #546e7a; stroke: #546e7a; stroke-linejoin: miter"/>
     <use xlink:href="#mbcd92fa984" x="128.988752" y="140.180966" style="fill: #546e7a; stroke: #546e7a; stroke-linejoin: miter"/>
     <use xlink:href="#mbcd92fa984" x="148.239102" y="116.080225" style="fill: #546e7a; stroke: #546e7a; stroke-linejoin: miter"/>
     <use xlink:href="#mbcd92fa984" x="186.739801" y="69.175551" style="fill: #546e7a; stroke: #546e7a; stroke-linejoin: miter"/>
     <use xlink:href="#mbcd92fa984" x="205.990151" y="54.015366" style="fill: #546e7a; stroke: #546e7a; stroke-linejoin: miter"/>
     <use xlink:href="#mbcd92fa984" x="225.2405" y="44.671218" style="fill: #546e7a; stroke: #546e7a; stroke-linejoin: miter"/>
     <use xlink:href="#mbcd92fa984" x="244.49085" y="38.808159" style="fill: #546e7a; stroke: #546e7a; stroke-linejoin: miter"/>
     <use xlink:href="#mbcd92fa984" x="263.7412" y="35.790867" style="fill: #546e7a; stroke: #546e7a; stroke-linejoin: miter"/>
     <use xlink:href="#mbcd92fa984" x="282.991549" y="34.814053" style="fill: #546e7a; stroke: #546e7a; stroke-linejoin: miter"/>
     <use xlink:href="#mbcd92fa984" x="302.241899" y="35.655396" style="fill: #546e7a; stroke: #546e7a; stroke-linejoin: miter"/>
     <use xlink:href="#mbcd92fa984" x="340.742598" y="41.411086" style="fill: #546e7a; stroke: #546e7a; stroke-linejoin: miter"/>
     <use xlink:href="#mbcd92fa984" x="379.243298" y="49.47792" style="fill: #546e7a; stroke: #546e7a; stroke-linejoin: miter"/>
     <use xlink:href="#mbcd92fa984" x="417.743997" y="58.46518" style="fill: #546e7a; stroke: #546e7a; stroke-linejoin: miter"/>
     <use xlink:href="#mbcd92fa984" x="436.994347" y="62.454827" style="fill: #546e7a; stroke: #546e7a; stroke-linejoin: miter"/>
    </g>
   </g>
   <g id="line2d_31">
    <path d="M 61.612528 228.696117 
L 71.237703 228.696017 
L 90.488053 228.683105 
L 109.738403 228.67198 
L 128.988752 228.657075 
" clip-path="url(#p084d63659a)" style="fill: none; stroke-dasharray: 5.92,2.56; stroke-dashoffset: 0; stroke: #c0392b; stroke-width: 1.6"/>
    <defs>
     <path id="m2bd2173f20" d="M 0 3 
C 0.795609 3 1.55874 2.683901 2.12132 2.12132 
C 2.683901 1.55874 3 0.795609 3 0 
C 3 -0.795609 2.683901 -1.55874 2.12132 -2.12132 
C 1.55874 -2.683901 0.795609 -3 0 -3 
C -0.795609 -3 -1.55874 -2.683901 -2.12132 -2.12132 
C -2.683901 -1.55874 -3 -0.795609 -3 0 
C -3 0.795609 -2.683901 1.55874 -2.12132 2.12132 
C -1.55874 2.683901 -0.795609 3 0 3 
z
" style="stroke: #c0392b"/>
    </defs>
    <g clip-path="url(#p084d63659a)">
     <use xlink:href="#m2bd2173f20" x="61.612528" y="228.696117" style="fill: #c0392b; stroke: #c0392b"/>
     <use xlink:href="#m2bd2173f20" x="71.237703" y="228.696017" style="fill: #c0392b; stroke: #c0392b"/>
     <use xlink:href="#m2bd2173f20" x="90.488053" y="228.683105" style="fill: #c0392b; stroke: #c0392b"/>
     <use xlink:href="#m2bd2173f20" x="109.738403" y="228.67198" style="fill: #c0392b; stroke: #c0392b"/>
     <use xlink:href="#m2bd2173f20" x="128.988752" y="228.657075" style="fill: #c0392b; stroke: #c0392b"/>
    </g>
   </g>
   <g id="line2d_32">
    <path d="M 42.843438 161.734769 
L 455.763438 161.734769 
" clip-path="url(#p084d63659a)" style="fill: none; stroke-dasharray: 1.4,2.31; stroke-dashoffset: 0; stroke: #27ae60; stroke-width: 1.4"/>
   </g>
   <g id="patch_3">
    <path d="M 42.843438 244.837969 
L 42.843438 23.077969 
" style="fill: none; stroke: #000000; stroke-width: 0.8; stroke-linejoin: miter; stroke-linecap: square"/>
   </g>
   <g id="patch_4">
    <path d="M 455.763438 244.837969 
L 455.763438 23.077969 
" style="fill: none; stroke: #000000; stroke-width: 0.8; stroke-linejoin: miter; stroke-linecap: square"/>
   </g>
   <g id="patch_5">
    <path d="M 42.843438 244.837969 
L 455.763438 244.837969 
" style="fill: none; stroke: #000000; stroke-width: 0.8; stroke-linejoin: miter; stroke-linecap: square"/>
   </g>
   <g id="patch_6">
    <path d="M 42.843438 23.077969 
L 455.763438 23.077969 
" style="fill: none; stroke: #000000; stroke-width: 0.8; stroke-linejoin: miter; stroke-linecap: square"/>
   </g>
   <g id="text_17">
    <!-- Custom GPU DEM — iron agitation vs no-iron control -->
    <g transform="translate(78.864297 17.077969) scale(0.13 -0.13)">
     <defs>
      <path id="DejaVuSans-75" d="M 544 1381 
L 544 3500 
L 1119 3500 
L 1119 1403 
Q 1119 906 1312 657 
Q 1506 409 1894 409 
Q 2359 409 2629 706 
Q 2900 1003 2900 1516 
L 2900 3500 
L 3475 3500 
L 3475 0 
L 2900 0 
L 2900 538 
Q 2691 219 2414 64 
Q 2138 -91 1772 -91 
Q 1169 -91 856 284 
Q 544 659 544 1381 
z
M 1991 3584 
L 1991 3584 
z
" transform="scale(0.015625)"/>
      <path id="DejaVuSans-47" d="M 3809 666 
L 3809 1919 
L 2778 1919 
L 2778 2438 
L 4434 2438 
L 4434 434 
Q 4069 175 3628 42 
Q 3188 -91 2688 -91 
Q 1594 -91 976 548 
Q 359 1188 359 2328 
Q 359 3472 976 4111 
Q 1594 4750 2688 4750 
Q 3144 4750 3555 4637 
Q 3966 4525 4313 4306 
L 4313 3634 
Q 3963 3931 3569 4081 
Q 3175 4231 2741 4231 
Q 1884 4231 1454 3753 
Q 1025 3275 1025 2328 
Q 1025 1384 1454 906 
Q 1884 428 2741 428 
Q 3075 428 3337 486 
Q 3600 544 3809 666 
z
" transform="scale(0.015625)"/>
      <path id="DejaVuSans-50" d="M 1259 4147 
L 1259 2394 
L 2053 2394 
Q 2494 2394 2734 2622 
Q 2975 2850 2975 3272 
Q 2975 3691 2734 3919 
Q 2494 4147 2053 4147 
L 1259 4147 
z
M 628 4666 
L 2053 4666 
Q 2838 4666 3239 4311 
Q 3641 3956 3641 3272 
Q 3641 2581 3239 2228 
Q 2838 1875 2053 1875 
L 1259 1875 
L 1259 0 
L 628 0 
L 628 4666 
z
" transform="scale(0.015625)"/>
      <path id="DejaVuSans-55" d="M 556 4666 
L 1191 4666 
L 1191 1831 
Q 1191 1081 1462 751 
Q 1734 422 2344 422 
Q 2950 422 3222 751 
Q 3494 1081 3494 1831 
L 3494 4666 
L 4128 4666 
L 4128 1753 
Q 4128 841 3676 375 
Q 3225 -91 2344 -91 
Q 1459 -91 1007 375 
Q 556 841 556 1753 
L 556 4666 
z
" transform="scale(0.015625)"/>
      <path id="DejaVuSans-44" d="M 1259 4147 
L 1259 519 
L 2022 519 
Q 2988 519 3436 956 
Q 3884 1394 3884 2338 
Q 3884 3275 3436 3711 
Q 2988 4147 2022 4147 
L 1259 4147 
z
M 628 4666 
L 1925 4666 
Q 3281 4666 3915 4102 
Q 4550 3538 4550 2338 
Q 4550 1131 3912 565 
Q 3275 0 1925 0 
L 628 0 
L 628 4666 
z
" transform="scale(0.015625)"/>
      <path id="DejaVuSans-45" d="M 628 4666 
L 3578 4666 
L 3578 4134 
L 1259 4134 
L 1259 2753 
L 3481 2753 
L 3481 2222 
L 1259 2222 
L 1259 531 
L 3634 531 
L 3634 0 
L 628 0 
L 628 4666 
z
" transform="scale(0.015625)"/>
      <path id="DejaVuSans-2014" d="M 313 1978 
L 6088 1978 
L 6088 1528 
L 313 1528 
L 313 1978 
z
" transform="scale(0.015625)"/>
      <path id="DejaVuSans-72" d="M 2631 2963 
Q 2534 3019 2420 3045 
Q 2306 3072 2169 3072 
Q 1681 3072 1420 2755 
Q 1159 2438 1159 1844 
L 1159 0 
L 581 0 
L 581 3500 
L 1159 3500 
L 1159 2956 
Q 1341 3275 1631 3429 
Q 1922 3584 2338 3584 
Q 2397 3584 2469 3576 
Q 2541 3569 2628 3553 
L 2631 2963 
z
" transform="scale(0.015625)"/>
      <path id="DejaVuSans-76" d="M 191 3500 
L 800 3500 
L 1894 563 
L 2988 3500 
L 3597 3500 
L 2284 0 
L 1503 0 
L 191 3500 
z
" transform="scale(0.015625)"/>
      <path id="DejaVuSans-2d" d="M 313 2009 
L 1997 2009 
L 1997 1497 
L 313 1497 
L 313 2009 
z
" transform="scale(0.015625)"/>
      <path id="DejaVuSans-6c" d="M 603 4863 
L 1178 4863 
L 1178 0 
L 603 0 
L 603 4863 
z
" transform="scale(0.015625)"/>
     </defs>
     <use xlink:href="#DejaVuSans-43"/>
     <use xlink:href="#DejaVuSans-75" transform="translate(69.824219 0)"/>
     <use xlink:href="#DejaVuSans-73" transform="translate(133.203125 0)"/>
     <use xlink:href="#DejaVuSans-74" transform="translate(185.302734 0)"/>
     <use xlink:href="#DejaVuSans-6f" transform="translate(224.511719 0)"/>
     <use xlink:href="#DejaVuSans-6d" transform="translate(285.693359 0)"/>
     <use xlink:href="#DejaVuSans-20" transform="translate(383.105469 0)"/>
     <use xlink:href="#DejaVuSans-47" transform="translate(414.892578 0)"/>
     <use xlink:href="#DejaVuSans-50" transform="translate(492.382812 0)"/>
     <use xlink:href="#DejaVuSans-55" transform="translate(552.685547 0)"/>
     <use xlink:href="#DejaVuSans-20" transform="translate(625.878906 0)"/>
     <use xlink:href="#DejaVuSans-44" transform="translate(657.666016 0)"/>
     <use xlink:href="#DejaVuSans-45" transform="translate(734.667969 0)"/>
     <use xlink:href="#DejaVuSans-4d" transform="translate(797.851562 0)"/>
     <use xlink:href="#DejaVuSans-20" transform="translate(884.130859 0)"/>
     <use xlink:href="#DejaVuSans-2014" transform="translate(915.917969 0)"/>
     <use xlink:href="#DejaVuSans-20" transform="translate(1015.917969 0)"/>
     <use xlink:href="#DejaVuSans-69" transform="translate(1047.705078 0)"/>
     <use xlink:href="#DejaVuSans-72" transform="translate(1075.488281 0)"/>
     <use xlink:href="#DejaVuSans-6f" transform="translate(1114.351562 0)"/>
     <use xlink:href="#DejaVuSans-6e" transform="translate(1175.533203 0)"/>
     <use xlink:href="#DejaVuSans-20" transform="translate(1238.912109 0)"/>
     <use xlink:href="#DejaVuSans-61" transform="translate(1270.699219 0)"/>
     <use xlink:href="#DejaVuSans-67" transform="translate(1331.978516 0)"/>
     <use xlink:href="#DejaVuSans-69" transform="translate(1395.455078 0)"/>
     <use xlink:href="#DejaVuSans-74" transform="translate(1423.238281 0)"/>
     <use xlink:href="#DejaVuSans-61" transform="translate(1462.447266 0)"/>
     <use xlink:href="#DejaVuSans-74" transform="translate(1523.726562 0)"/>
     <use xlink:href="#DejaVuSans-69" transform="translate(1562.935547 0)"/>
     <use xlink:href="#DejaVuSans-6f" transform="translate(1590.71875 0)"/>
     <use xlink:href="#DejaVuSans-6e" transform="translate(1651.900391 0)"/>
     <use xlink:href="#DejaVuSans-20" transform="translate(1715.279297 0)"/>
     <use xlink:href="#DejaVuSans-76" transform="translate(1747.066406 0)"/>
     <use xlink:href="#DejaVuSans-73" transform="translate(1806.246094 0)"/>
     <use xlink:href="#DejaVuSans-20" transform="translate(1858.345703 0)"/>
     <use xlink:href="#DejaVuSans-6e" transform="translate(1890.132812 0)"/>
     <use xlink:href="#DejaVuSans-6f" transform="translate(1953.511719 0)"/>
     <use xlink:href="#DejaVuSans-2d" transform="translate(2016.568359 0)"/>
     <use xlink:href="#DejaVuSans-69" transform="translate(2052.652344 0)"/>
     <use xlink:href="#DejaVuSans-72" transform="translate(2080.435547 0)"/>
     <use xlink:href="#DejaVuSans-6f" transform="translate(2119.298828 0)"/>
     <use xlink:href="#DejaVuSans-6e" transform="translate(2180.480469 0)"/>
     <use xlink:href="#DejaVuSans-20" transform="translate(2243.859375 0)"/>
     <use xlink:href="#DejaVuSans-63" transform="translate(2275.646484 0)"/>
     <use xlink:href="#DejaVuSans-6f" transform="translate(2330.626953 0)"/>
     <use xlink:href="#DejaVuSans-6e" transform="translate(2391.808594 0)"/>
     <use xlink:href="#DejaVuSans-74" transform="translate(2455.1875 0)"/>
     <use xlink:href="#DejaVuSans-72" transform="translate(2494.396484 0)"/>
     <use xlink:href="#DejaVuSans-6f" transform="translate(2533.259766 0)"/>
     <use xlink:href="#DejaVuSans-6c" transform="translate(2594.441406 0)"/>
    </g>
   </g>
   <g id="legend_1">
    <g id="patch_7">
     <path d="M 212.786875 239.837969 
L 448.763438 239.837969 
Q 450.763438 239.837969 450.763438 237.837969 
L 450.763438 179.847344 
Q 450.763438 177.847344 448.763438 177.847344 
L 212.786875 177.847344 
Q 210.786875 177.847344 210.786875 179.847344 
L 210.786875 237.837969 
Q 210.786875 239.837969 212.786875 239.837969 
z
" style="fill: #ffffff; opacity: 0.8; stroke: #cccccc; stroke-linejoin: miter"/>
    </g>
    <g id="line2d_33">
     <path d="M 214.786875 185.945781 
L 224.786875 185.945781 
L 234.786875 185.945781 
" style="fill: none; stroke: #8d6e63; stroke-width: 2; stroke-linecap: square"/>
     <g>
      <use xlink:href="#me563f7034f" x="224.786875" y="185.945781" style="fill: #8d6e63; stroke: #8d6e63"/>
     </g>
    </g>
    <g id="text_18">
     <!-- High-N with iron — regolith ⟨z⟩ -->
     <g transform="translate(242.786875 189.445781) scale(0.1 -0.1)">
      <defs>
       <path id="DejaVuSans-48" d="M 628 4666 
L 1259 4666 
L 1259 2753 
L 3553 2753 
L 3553 4666 
L 4184 4666 
L 4184 0 
L 3553 0 
L 3553 2222 
L 1259 2222 
L 1259 0 
L 628 0 
L 628 4666 
z
" transform="scale(0.015625)"/>
       <path id="DejaVuSans-4e" d="M 628 4666 
L 1478 4666 
L 3547 763 
L 3547 4666 
L 4159 4666 
L 4159 0 
L 3309 0 
L 1241 3903 
L 1241 0 
L 628 0 
L 628 4666 
z
" transform="scale(0.015625)"/>
       <path id="DejaVuSans-77" d="M 269 3500 
L 844 3500 
L 1563 769 
L 2278 3500 
L 2956 3500 
L 3675 769 
L 4391 3500 
L 4966 3500 
L 4050 0 
L 3372 0 
L 2619 2869 
L 1863 0 
L 1184 0 
L 269 3500 
z
" transform="scale(0.015625)"/>
       <path id="DejaVuSans-27e8" d="M 572 2006 
L 1453 4856 
L 1984 4856 
L 1103 2006 
L 1984 -844 
L 1453 -844 
L 572 2006 
z
" transform="scale(0.015625)"/>
       <path id="DejaVuSans-7a" d="M 353 3500 
L 3084 3500 
L 3084 2975 
L 922 459 
L 3084 459 
L 3084 0 
L 275 0 
L 275 525 
L 2438 3041 
L 353 3041 
L 353 3500 
z
" transform="scale(0.015625)"/>
       <path id="DejaVuSans-27e9" d="M 1925 2006 
L 1044 -844 
L 513 -844 
L 1394 2006 
L 513 4856 
L 1044 4856 
L 1925 2006 
z
" transform="scale(0.015625)"/>
      </defs>
      <use xlink:href="#DejaVuSans-48"/>
      <use xlink:href="#DejaVuSans-69" transform="translate(75.195312 0)"/>
      <use xlink:href="#DejaVuSans-67" transform="translate(102.978516 0)"/>
      <use xlink:href="#DejaVuSans-68" transform="translate(166.455078 0)"/>
      <use xlink:href="#DejaVuSans-2d" transform="translate(229.833984 0)"/>
      <use xlink:href="#DejaVuSans-4e" transform="translate(265.917969 0)"/>
      <use xlink:href="#DejaVuSans-20" transform="translate(340.722656 0)"/>
      <use xlink:href="#DejaVuSans-77" transform="translate(372.509766 0)"/>
      <use xlink:href="#DejaVuSans-69" transform="translate(454.296875 0)"/>
      <use xlink:href="#DejaVuSans-74" transform="translate(482.080078 0)"/>
      <use xlink:href="#DejaVuSans-68" transform="translate(521.289062 0)"/>
      <use xlink:href="#DejaVuSans-20" transform="translate(584.667969 0)"/>
      <use xlink:href="#DejaVuSans-69" transform="translate(616.455078 0)"/>
      <use xlink:href="#DejaVuSans-72" transform="translate(644.238281 0)"/>
      <use xlink:href="#DejaVuSans-6f" transform="translate(683.101562 0)"/>
      <use xlink:href="#DejaVuSans-6e" transform="translate(744.283203 0)"/>
      <use xlink:href="#DejaVuSans-20" transform="translate(807.662109 0)"/>
      <use xlink:href="#DejaVuSans-2014" transform="translate(839.449219 0)"/>
      <use xlink:href="#DejaVuSans-20" transform="translate(939.449219 0)"/>
      <use xlink:href="#DejaVuSans-72" transform="translate(971.236328 0)"/>
      <use xlink:href="#DejaVuSans-65" transform="translate(1010.099609 0)"/>
      <use xlink:href="#DejaVuSans-67" transform="translate(1071.623047 0)"/>
      <use xlink:href="#DejaVuSans-6f" transform="translate(1135.099609 0)"/>
      <use xlink:href="#DejaVuSans-6c" transform="translate(1196.28125 0)"/>
      <use xlink:href="#DejaVuSans-69" transform="translate(1224.064453 0)"/>
      <use xlink:href="#DejaVuSans-74" transform="translate(1251.847656 0)"/>
      <use xlink:href="#DejaVuSans-68" transform="translate(1291.056641 0)"/>
      <use xlink:href="#DejaVuSans-20" transform="translate(1354.435547 0)"/>
      <use xlink:href="#DejaVuSans-27e8" transform="translate(1386.222656 0)"/>
      <use xlink:href="#DejaVuSans-7a" transform="translate(1425.236328 0)"/>
      <use xlink:href="#DejaVuSans-27e9" transform="translate(1477.726562 0)"/>
     </g>
    </g>
    <g id="line2d_34">
     <path d="M 214.786875 200.623906 
L 224.786875 200.623906 
L 234.786875 200.623906 
" style="fill: none; stroke: #546e7a; stroke-width: 2; stroke-linecap: square"/>
     <g>
      <use xlink:href="#mbcd92fa984" x="224.786875" y="200.623906" style="fill: #546e7a; stroke: #546e7a; stroke-linejoin: miter"/>
     </g>
    </g>
    <g id="text_19">
     <!-- High-N with iron — iron ⟨z⟩ -->
     <g transform="translate(242.786875 204.123906) scale(0.1 -0.1)">
      <use xlink:href="#DejaVuSans-48"/>
      <use xlink:href="#DejaVuSans-69" transform="translate(75.195312 0)"/>
      <use xlink:href="#DejaVuSans-67" transform="translate(102.978516 0)"/>
      <use xlink:href="#DejaVuSans-68" transform="translate(166.455078 0)"/>
      <use xlink:href="#DejaVuSans-2d" transform="translate(229.833984 0)"/>
      <use xlink:href="#DejaVuSans-4e" transform="translate(265.917969 0)"/>
      <use xlink:href="#DejaVuSans-20" transform="translate(340.722656 0)"/>
      <use xlink:href="#DejaVuSans-77" transform="translate(372.509766 0)"/>
      <use xlink:href="#DejaVuSans-69" transform="translate(454.296875 0)"/>
      <use xlink:href="#DejaVuSans-74" transform="translate(482.080078 0)"/>
      <use xlink:href="#DejaVuSans-68" transform="translate(521.289062 0)"/>
      <use xlink:href="#DejaVuSans-20" transform="translate(584.667969 0)"/>
      <use xlink:href="#DejaVuSans-69" transform="translate(616.455078 0)"/>
      <use xlink:href="#DejaVuSans-72" transform="translate(644.238281 0)"/>
      <use xlink:href="#DejaVuSans-6f" transform="translate(683.101562 0)"/>
      <use xlink:href="#DejaVuSans-6e" transform="translate(744.283203 0)"/>
      <use xlink:href="#DejaVuSans-20" transform="translate(807.662109 0)"/>
      <use xlink:href="#DejaVuSans-2014" transform="translate(839.449219 0)"/>
      <use xlink:href="#DejaVuSans-20" transform="translate(939.449219 0)"/>
      <use xlink:href="#DejaVuSans-69" transform="translate(971.236328 0)"/>
      <use xlink:href="#DejaVuSans-72" transform="translate(999.019531 0)"/>
      <use xlink:href="#DejaVuSans-6f" transform="translate(1037.882812 0)"/>
      <use xlink:href="#DejaVuSans-6e" transform="translate(1099.064453 0)"/>
      <use xlink:href="#DejaVuSans-20" transform="translate(1162.443359 0)"/>
      <use xlink:href="#DejaVuSans-27e8" transform="translate(1194.230469 0)"/>
      <use xlink:href="#DejaVuSans-7a" transform="translate(1233.244141 0)"/>
      <use xlink:href="#DejaVuSans-27e9" transform="translate(1285.734375 0)"/>
     </g>
    </g>
    <g id="line2d_35">
     <path d="M 214.786875 215.302031 
L 224.786875 215.302031 
L 234.786875 215.302031 
" style="fill: none; stroke-dasharray: 5.92,2.56; stroke-dashoffset: 0; stroke: #c0392b; stroke-width: 1.6"/>
     <g>
      <use xlink:href="#m2bd2173f20" x="224.786875" y="215.302031" style="fill: #c0392b; stroke: #c0392b"/>
     </g>
    </g>
    <g id="text_20">
     <!-- High-N no iron — regolith ⟨z⟩ -->
     <g transform="translate(242.786875 218.802031) scale(0.1 -0.1)">
      <use xlink:href="#DejaVuSans-48"/>
      <use xlink:href="#DejaVuSans-69" transform="translate(75.195312 0)"/>
      <use xlink:href="#DejaVuSans-67" transform="translate(102.978516 0)"/>
      <use xlink:href="#DejaVuSans-68" transform="translate(166.455078 0)"/>
      <use xlink:href="#DejaVuSans-2d" transform="translate(229.833984 0)"/>
      <use xlink:href="#DejaVuSans-4e" transform="translate(265.917969 0)"/>
      <use xlink:href="#DejaVuSans-20" transform="translate(340.722656 0)"/>
      <use xlink:href="#DejaVuSans-6e" transform="translate(372.509766 0)"/>
      <use xlink:href="#DejaVuSans-6f" transform="translate(435.888672 0)"/>
      <use xlink:href="#DejaVuSans-20" transform="translate(497.070312 0)"/>
      <use xlink:href="#DejaVuSans-69" transform="translate(528.857422 0)"/>
      <use xlink:href="#DejaVuSans-72" transform="translate(556.640625 0)"/>
      <use xlink:href="#DejaVuSans-6f" transform="translate(595.503906 0)"/>
      <use xlink:href="#DejaVuSans-6e" transform="translate(656.685547 0)"/>
      <use xlink:href="#DejaVuSans-20" transform="translate(720.064453 0)"/>
      <use xlink:href="#DejaVuSans-2014" transform="translate(751.851562 0)"/>
      <use xlink:href="#DejaVuSans-20" transform="translate(851.851562 0)"/>
      <use xlink:href="#DejaVuSans-72" transform="translate(883.638672 0)"/>
      <use xlink:href="#DejaVuSans-65" transform="translate(922.501953 0)"/>
      <use xlink:href="#DejaVuSans-67" transform="translate(984.025391 0)"/>
      <use xlink:href="#DejaVuSans-6f" transform="translate(1047.501953 0)"/>
      <use xlink:href="#DejaVuSans-6c" transform="translate(1108.683594 0)"/>
      <use xlink:href="#DejaVuSans-69" transform="translate(1136.466797 0)"/>
      <use xlink:href="#DejaVuSans-74" transform="translate(1164.25 0)"/>
      <use xlink:href="#DejaVuSans-68" transform="translate(1203.458984 0)"/>
      <use xlink:href="#DejaVuSans-20" transform="translate(1266.837891 0)"/>
      <use xlink:href="#DejaVuSans-27e8" transform="translate(1298.625 0)"/>
      <use xlink:href="#DejaVuSans-7a" transform="translate(1337.638672 0)"/>
      <use xlink:href="#DejaVuSans-27e9" transform="translate(1390.128906 0)"/>
     </g>
    </g>
    <g id="line2d_36">
     <path d="M 214.786875 229.980156 
L 224.786875 229.980156 
L 234.786875 229.980156 
" style="fill: none; stroke-dasharray: 1.4,2.31; stroke-dashoffset: 0; stroke: #27ae60; stroke-width: 1.4"/>
    </g>
    <g id="text_21">
     <!-- Good-var iron 1.5 mm  ⟨z⟩_reg=11.6 mm -->
     <g transform="translate(242.786875 233.480156) scale(0.1 -0.1)">
      <defs>
       <path id="DejaVuSans-64" d="M 2906 2969 
L 2906 4863 
L 3481 4863 
L 3481 0 
L 2906 0 
L 2906 525 
Q 2725 213 2448 61 
Q 2172 -91 1784 -91 
Q 1150 -91 751 415 
Q 353 922 353 1747 
Q 353 2572 751 3078 
Q 1150 3584 1784 3584 
Q 2172 3584 2448 3432 
Q 2725 3281 2906 2969 
z
M 947 1747 
Q 947 1113 1208 752 
Q 1469 391 1925 391 
Q 2381 391 2643 752 
Q 2906 1113 2906 1747 
Q 2906 2381 2643 2742 
Q 2381 3103 1925 3103 
Q 1469 3103 1208 2742 
Q 947 2381 947 1747 
z
" transform="scale(0.015625)"/>
       <path id="DejaVuSans-2e" d="M 684 794 
L 1344 794 
L 1344 0 
L 684 0 
L 684 794 
z
" transform="scale(0.015625)"/>
       <path id="DejaVuSans-5f" d="M 3263 -1063 
L 3263 -1509 
L -63 -1509 
L -63 -1063 
L 3263 -1063 
z
" transform="scale(0.015625)"/>
       <path id="DejaVuSans-3d" d="M 678 2906 
L 4684 2906 
L 4684 2381 
L 678 2381 
L 678 2906 
z
M 678 1631 
L 4684 1631 
L 4684 1100 
L 678 1100 
L 678 1631 
z
" transform="scale(0.015625)"/>
       <path id="DejaVuSans-36" d="M 2113 2584 
Q 1688 2584 1439 2293 
Q 1191 2003 1191 1497 
Q 1191 994 1439 701 
Q 1688 409 2113 409 
Q 2538 409 2786 701 
Q 3034 994 3034 1497 
Q 3034 2003 2786 2293 
Q 2538 2584 2113 2584 
z
M 3366 4563 
L 3366 3988 
Q 3128 4100 2886 4159 
Q 2644 4219 2406 4219 
Q 1781 4219 1451 3797 
Q 1122 3375 1075 2522 
Q 1259 2794 1537 2939 
Q 1816 3084 2150 3084 
Q 2853 3084 3261 2657 
Q 3669 2231 3669 1497 
Q 3669 778 3244 343 
Q 2819 -91 2113 -91 
Q 1303 -91 875 529 
Q 447 1150 447 2328 
Q 447 3434 972 4092 
Q 1497 4750 2381 4750 
Q 2619 4750 2861 4703 
Q 3103 4656 3366 4563 
z
" transform="scale(0.015625)"/>
      </defs>
      <use xlink:href="#DejaVuSans-47"/>
      <use xlink:href="#DejaVuSans-6f" transform="translate(77.490234 0)"/>
      <use xlink:href="#DejaVuSans-6f" transform="translate(138.671875 0)"/>
      <use xlink:href="#DejaVuSans-64" transform="translate(199.853516 0)"/>
      <use xlink:href="#DejaVuSans-2d" transform="translate(263.330078 0)"/>
      <use xlink:href="#DejaVuSans-76" transform="translate(296.789062 0)"/>
      <use xlink:href="#DejaVuSans-61" transform="translate(355.96875 0)"/>
      <use xlink:href="#DejaVuSans-72" transform="translate(417.248047 0)"/>
      <use xlink:href="#DejaVuSans-20" transform="translate(458.361328 0)"/>
      <use xlink:href="#DejaVuSans-69" transform="translate(490.148438 0)"/>
      <use xlink:href="#DejaVuSans-72" transform="translate(517.931641 0)"/>
      <use xlink:href="#DejaVuSans-6f" transform="translate(556.794922 0)"/>
      <use xlink:href="#DejaVuSans-6e" transform="translate(617.976562 0)"/>
      <use xlink:href="#DejaVuSans-20" transform="translate(681.355469 0)"/>
      <use xlink:href="#DejaVuSans-31" transform="translate(713.142578 0)"/>
      <use xlink:href="#DejaVuSans-2e" transform="translate(776.765625 0)"/>
      <use xlink:href="#DejaVuSans-35" transform="translate(808.552734 0)"/>
      <use xlink:href="#DejaVuSans-20" transform="translate(872.175781 0)"/>
      <use xlink:href="#DejaVuSans-6d" transform="translate(903.962891 0)"/>
      <use xlink:href="#DejaVuSans-6d" transform="translate(1001.375 0)"/>
      <use xlink:href="#DejaVuSans-20" transform="translate(1098.787109 0)"/>
      <use xlink:href="#DejaVuSans-20" transform="translate(1130.574219 0)"/>
      <use xlink:href="#DejaVuSans-27e8" transform="translate(1162.361328 0)"/>
      <use xlink:href="#DejaVuSans-7a" transform="translate(1201.375 0)"/>
      <use xlink:href="#DejaVuSans-27e9" transform="translate(1253.865234 0)"/>
      <use xlink:href="#DejaVuSans-5f" transform="translate(1292.878906 0)"/>
      <use xlink:href="#DejaVuSans-72" transform="translate(1342.878906 0)"/>
      <use xlink:href="#DejaVuSans-65" transform="translate(1381.742188 0)"/>
      <use xlink:href="#DejaVuSans-67" transform="translate(1443.265625 0)"/>
      <use xlink:href="#DejaVuSans-3d" transform="translate(1506.742188 0)"/>
      <use xlink:href="#DejaVuSans-31" transform="translate(1590.53125 0)"/>
      <use xlink:href="#DejaVuSans-31" transform="translate(1654.154297 0)"/>
      <use xlink:href="#DejaVuSans-2e" transform="translate(1717.777344 0)"/>
      <use xlink:href="#DejaVuSans-36" transform="translate(1749.564453 0)"/>
      <use xlink:href="#DejaVuSans-20" transform="translate(1813.1875 0)"/>
      <use xlink:href="#DejaVuSans-6d" transform="translate(1844.974609 0)"/>
      <use xlink:href="#DejaVuSans-6d" transform="translate(1942.386719 0)"/>
     </g>
    </g>
   </g>
  </g>
 </g>
 <defs>
  <clipPath id="p084d63659a">
   <rect x="42.843438" y="23.077969" width="412.92" height="221.76"/>
  </clipPath>
 </defs>
</svg>
